<svg width="81" height="50" viewBox="0 0 81 50" fill="none" xmlns="http://www.w3.org/2000/svg">
<path d="M67.1019 18.7167C67.0952 18.7681 67.0907 18.818 67.0818 18.871C65.9511 26.3817 59.0483 31.1849 52.3836 33.5805C48.0218 35.1488 43.0727 35.9021 38.4517 35.0115C35.4944 40.2761 29.8243 44.4128 24.5738 46.3372C18.8256 48.4439 12.5917 48.4323 6.85613 46.563C6.77656 46.9564 6.70392 47.3548 6.64799 47.7581C6.61302 48.0131 6.49081 48.1964 6.32989 48.3204C6.32461 48.5377 6.31932 48.755 6.32317 48.9758C6.33818 49.6525 5.31165 49.9827 4.91914 49.4332C3.34438 47.2289 1.75416 45.0356 0.167723 42.8429C-0.157748 42.3928 -0.00939912 41.6705 0.613018 41.5799C1.10364 41.5093 1.59425 41.4387 2.08645 41.3703C2.27983 41.25 2.51728 41.1919 2.76187 41.2421C2.79591 41.2481 2.82931 41.2578 2.86115 41.2652C4.56568 41.0354 6.27303 40.8235 7.98789 40.6598C8.66829 40.5948 8.92267 41.469 8.42107 41.7676C8.4194 41.8589 8.39974 41.9528 8.35456 42.0483C7.93836 42.9403 7.58805 43.8458 7.30612 44.7728C16.592 47.8474 27.1051 45.4249 33.9077 38.0269C34.8146 37.0408 35.739 35.8455 36.538 34.5387C35.5157 34.2286 34.5149 33.8365 33.5505 33.3319C29.2151 31.0746 23.6054 23.9845 29.5923 20.1873C35.4921 16.445 40.9849 23.094 40.4587 28.822C40.3096 30.4423 39.8706 32.0045 39.212 33.4954C46.9723 34.8846 56.1214 31.4732 61.3364 26.3709C63.1852 24.5608 64.6792 22.0812 65.3078 19.4804C60.3776 21.4214 54.6061 22.3435 51.4958 17.5268C48.5482 12.9584 52.7448 6.89604 57.7997 6.83526C63.3826 6.77077 67.0799 11.8824 67.1905 17.0391C67.5418 16.8702 67.8872 16.7023 68.2304 16.5359C74.2655 13.6121 80.9464 8.27552 79.1892 0.658519C79.0204 -0.0760643 80.1445 -0.268453 80.3309 0.453614C82.2416 7.82843 76.4885 13.7723 70.5363 16.9911C69.536 17.5362 68.3661 18.1415 67.1019 18.7167ZM36.6708 22.4399C34.8084 20.5928 31.6404 20.3346 29.7441 22.2651C27.2009 24.8508 29.8937 28.6287 32.0891 30.37C33.6712 31.6248 35.4568 32.502 37.3603 33.0587C39.1209 29.5227 39.7093 25.4557 36.6708 22.4399ZM63.6477 11.3075C60.2708 7.25682 53.0603 7.48662 52.1246 13.4746C51.5254 17.3156 55.4027 19.5537 58.7725 19.5489C61.1146 19.5448 63.4124 18.7478 65.5884 17.7835C65.7871 15.5075 65.2521 13.2306 63.6477 11.3075Z" fill="white"/>
</svg>
